<?xml version="1.0" standalone="no"?><!DOCTYPE svg PUBLIC "-//W3C//DTD SVG 1.1//EN" "http://www.w3.org/Graphics/SVG/1.1/DTD/svg11.dtd"><svg t="1670591423004" class="icon" viewBox="0 0 1024 1024" version="1.1" xmlns="http://www.w3.org/2000/svg" p-id="3064" data-darkreader-inline-fill="" xmlns:xlink="http://www.w3.org/1999/xlink" width="200" height="200"><path d="M885.952 359.7l-55.902-34.904c-16.782-28.124-103.558-163.774-225.396-180.586-23.876-3.282-44.688-4.876-63.562-4.876-83.31 0-120.838 31.874-172.744 75.998l-3.656 3.094c-46.216 39.216-57.81 95.152-70.09 154.336-17.562 84.528-37.436 180.336-158.12 271.55a21.326 21.326 0 0 0-8.468 17.218 21.358 21.358 0 0 0 8.78 17.032l469.328 341.33a21.232 21.232 0 0 0 12.532 4.094c1.5 0 2.998-0.156 4.466-0.468a21.388 21.388 0 0 0 14.032-10.25c2.188-3.75 53.434-93.87 66.684-206.274 11.094-93.84-26.188-148.62-42.094-172.022a162.064 162.064 0 0 1-3.216-4.782c4.592-41.344 36.842-48.968 92.122-58.5 27.186-4.688 55.31-9.56 78.216-22.248 28.654-15.844 44.154-41.498 46.154-76.248 0.344-6.156-2-11.936-6.062-16.124l8.876-10.218a21.592 21.592 0 0 0 4.654-9.092l12.938-55.092a21.304 21.304 0 0 0-9.472-22.968z" fill="#656D78" p-id="3065" data-darkreader-inline-fill="" style="--darkreader-inline-fill:#535a5e;"></path><path d="M746.644 320.014a21.298 21.298 0 0 1-21.31 21.312c-11.782 0-21.344-9.53-21.344-21.312s9.562-21.342 21.344-21.342c11.78 0 21.31 9.562 21.31 21.342z" fill="#434A54" p-id="3066" data-darkreader-inline-fill="" style="--darkreader-inline-fill:#b8b2a9;"></path><path d="M554.59 195.738l-13.312-175.994a21.406 21.406 0 0 0-10.56-16.842 21.34 21.34 0 0 0-19.844-0.844c-4.594 2.188-112.588 55.216-126.776 224.178-1 11.718 7.718 22.03 19.436 23.03 0.624 0.062 1.25 0.062 1.812 0.062 11 0 20.312-8.406 21.25-19.53 0.188-2.376 0.438-4.718 0.688-7.032l85.308-20.468c2.408 10.032 11.75 17.124 22.374 16.312 11.748-0.872 20.53-11.122 19.624-22.872z" fill="#656D78" p-id="3067" data-darkreader-inline-fill="" style="--darkreader-inline-fill:#535a5e;"></path><path d="M136.794 678.562l469.328 341.33a21.232 21.232 0 0 0 12.532 4.094c1.5 0 2.998-0.156 4.466-0.468a21.388 21.388 0 0 0 14.032-10.25c0.876-1.5 9.438-16.562 20.31-41.248L169.448 617.098a489.008 489.008 0 0 1-32.966 27.214 21.326 21.326 0 0 0-8.468 17.218 21.352 21.352 0 0 0 8.78 17.032z" fill="#5D9CEC" p-id="3068" data-darkreader-inline-fill="" style="--darkreader-inline-fill:#11488f;"></path><path d="M895.42 382.668a21.296 21.296 0 0 0-9.468-22.968l-17.716-11.092-1.968 32.592 26.624 12.188 2.528-10.72z" fill="#EC87C0" p-id="3069" data-darkreader-inline-fill="" style="--darkreader-inline-fill:#eb7fbc;"></path><path d="M554.59 195.738l31.812-53.778c-12.876-1.376-24.812-2.218-36.062-2.5l4.25 56.278zM874.766 476.632c0.094-1.124 0.188-2.282 0.25-3.438 0.344-6.156-2-11.936-6.062-16.124h-47.56l53.372 19.562z" opacity=".1" p-id="3070"></path></svg>