<?xml version="1.0" standalone="no"?><!DOCTYPE svg PUBLIC "-//W3C//DTD SVG 1.1//EN" "http://www.w3.org/Graphics/SVG/1.1/DTD/svg11.dtd"><svg t="1670611914465" class="icon" viewBox="0 0 1099 1024" version="1.1" xmlns="http://www.w3.org/2000/svg" p-id="1604" data-darkreader-inline-fill="" xmlns:xlink="http://www.w3.org/1999/xlink" width="214.6484375" height="200"><path d="M869.306182 19.130182c23.581091-7.313455 50.426182-0.069818 71.662545 8.669091 20.916364 14.772364 35.013818 37.003636 37.149091 61.44 6.248727 24.145455-14.882909 37.608727-10.868363 59.345454 44.177455 41.332364 60.194909 93.504 65.483636 149.189818 21.271273 20.957091 49.786182 39.918545 66.443636 66.699637-3.339636 23.080727-33.163636 34.484364-48.756363 48.226909-5.504 12.002909 11.968 18.856727 13.102545 29.975273 11.502545 29.265455-1.064727 60.939636-19.712 82.850909-12.288 14.347636-27.450182 19.781818-41.262545 31.464727-8.133818 108.177455-31.36 210.210909-123.618909 277.655273-76.136727 56.005818-163.607273 79.266909-257.995637 85.661091-5.684364 2.56-3.764364 8.733091-4.439273 13.102545 1.524364 1.745455 2.629818 2.949818 3.584 4.654546 64.104727 2.769455 147.700364-17.902545 185.978182 43.648 4.584727 9.588364 1.745455 22.725818-4.084363 30.824727-4.119273 3.659636-8.628364 6.784-13.672728 8.273454a5004.334545 5004.334545 0 0 1-258.170181-3.054545 35.159273 35.159273 0 0 1-11.008-12.677818c-2.24-26.176 3.444364-55.296-0.424728-80.901818-13.748364-13.922909-39.138909-3.944727-55.435636-11.793455C264.494545 873.146182 44.288 724.904727 3.275636 510.370909 1.664 484.258909 17.576727 462.702545 39.133091 450.909091c1.239273-28.235636 1.099636-63.68 16.087273-88.436364 13.242182-23.860364 37.469091-46.021818 62.359272-57.210182 13.317818-38.213818 46.557091-77.207273 89.949091-79.726545 99.258182 11.008 140.165818 138.682182 235.054546 159.418182 49.047273 8.773818 82.501818-35.153455 113.355636-68.183273 23.086545-33.92 51.031273-65.384727 64.349091-103.563636 1.6-23.185455-25.495273-36.113455-29.614545-57.250909-12.823273-22.225455 4.718545-44.177455 9.512727-65.024 24.011636-28.305455 55.755636-46.272 94.818909-39.633455 19.072-31.819636 53.125818-47.517091 87.540364-49.361454 32.738909-1.815273 53.480727 31.214545 86.74909 17.186909" fill="#231916" p-id="1605" data-darkreader-inline-fill="" style="--darkreader-inline-fill:#1c1412;"></path><path d="M839.970909 56.616727c23.581091 5.434182 43.502545-18.036364 67.898182-6.423272 14.277818 2.234182 28.16 14.522182 33.629091 28.020363 2.734545 15.127273 2.594909 30.609455 2.909091 46.696727-20.026182 4.119273-36.392727-14.842182-57.419637-17.472-88.634182-23.831273-174.010182 1.175273-233.454545 69.504-17.332364 2.629818-25.390545-15.982545-33.169455-27.950545-6.638545-12.002909-1.989818-29.550545 0.709819-42.193455 21.626182-23.970909 53.056-32.564364 83.170909-24.576 20.736-17.966545 36.968727-48.261818 66.513454-51.386181 27.095273 0.069818 50.711273 6.673455 69.213091 25.780363" fill="#E73535" p-id="1606" data-darkreader-inline-fill="" style="--darkreader-inline-fill:#a71414;"></path><path d="M958.784 190.353455c33.844364 49.186909 50.210909 118.551273 21.626182 175.511272-4.154182 30.935273-62.964364 46.562909-35.153455 82.181818 42.786909 98.804364 19.781818 230.312727-40.378182 314.624-62.679273 78.167273-153.134545 104.692364-243.508363 118.440728-219.927273 24.715636-419.293091-53.346909-555.229091-226.618182-29.410909-49.512727-66.094545-97.698909-60.625455-158.429091 5.003636-14.702545 25.605818-14.347636 31.784728-30.155636-0.709818-47.127273-2.769455-101.568 43.682909-124.439273 43.572364-8.593455 30.184727-70.144 75.601454-80.407273 65.559273-4.864 97.873455 68.049455 147.339637 101.818182 39.668364 30.545455 81.431273 64 135.517091 55.191273 160.552727-61.044364 169.716364-318.312727 374.475636-286.562909 42.437818 4.578909 77.486545 26.565818 104.866909 58.845091" fill="#FEFEFE" p-id="1607" data-darkreader-inline-fill="" style="--darkreader-inline-fill:#191b1c;"></path><path d="M905.792 310.528c4.439273 12.893091 1.029818 28.270545-4.439273 39.668364-8.238545 11.828364-23.365818 14.487273-34.763636 9.018181-16.267636-7.348364-14.952727-26.065455-15.307636-41.658181 2.629818-11.537455 8.808727-24.075636 21.166545-28.48 14.417455 0.069818 31.319273 5.294545 33.344 21.451636" fill="#231916" p-id="1608" data-darkreader-inline-fill="" style="--darkreader-inline-fill:#d6d2cd;"></path><path d="M1067.048727 361.338182c-5.893818 20.846545-28.8 25.425455-44.247272 36.898909-3.409455 1.989818-8.308364 0.104727-13.317819 0.494545 5.824-19.671273 12.962909-42.618182 18.856728-64.069818 17.221818 0.290909 26.490182 17.297455 38.708363 26.676364" fill="#F9BE00" p-id="1609" data-darkreader-inline-fill="" style="--darkreader-inline-fill:#ffca1e;"></path><path d="M1032.925091 446.312727c7.138909 12.497455 5.754182 32.954182-0.890182 45.416728-5.963636 10.798545-16.226909 28.090182-31.639273 26.315636-3.723636-28.410182-13.672727-54.865455-16.302545-84.346182 14.027636-15.482182 40.698182-4.404364 48.832 12.608" fill="#E73535" p-id="1610" data-darkreader-inline-fill="" style="--darkreader-inline-fill:#e94444;"></path><path d="M671.144727 531.834182c0.570182 12.782545-12.427636 19.461818-23.080727 21.701818-43.008 8.128-90.804364 23.720727-112.116364 68.218182-5.323636 18.717091-6.923636 42.973091 3.979637 60.020363 18.077091 29.090909 51.665455 34.944 83.025454 40.843637 13.568 17.757091-7.488 43.362909 9.413818 60.194909 15.197091 21.771636 41.972364 30.685091 68.32291 24.145454 21.486545 0.890182 37.858909-42.722909 57.710545-15.802181 0.779636 20.596364-22.411636 31.220364-36.224 42.193454-33.419636 17.931636-79.406545 6.498909-107.287273-16.832-16.930909-17.477818-26.56-37.789091-28.829091-61.195636-29.690182-19.031273-71.168-31.889455-85.056-71.307637-9.442909-36.439273-0.954182-78.208 23.441455-105.37309 32.098909-35.723636 71.738182-55.621818 115.84-61.405091 13.248-1.064727 26.420364 1.739636 30.859636 14.597818" fill="#231916" p-id="1611" data-darkreader-inline-fill="" style="--darkreader-inline-fill:#1c1412;"></path><path d="M585.972364 933.800727c-1.669818 12.043636-1.105455 25.960727 11.927272 30.970182 47.592727 0.424727 93.224727-3.589818 142.411637 0.709818 11.857455 6.074182 27.944727 6.213818 35.083636 20.386909 5.399273 15.266909-11.578182 11.077818-19.357091 11.362909-69.568-4.759273-140.305455 2.129455-206.894545-7.953454-1.309091-19.502545-0.424727-41.623273 2.629818-60.910546 8.669091-6.178909 30.935273-10.228364 34.199273 5.434182" fill="#F9BE00" p-id="1612" data-darkreader-inline-fill="" style="--darkreader-inline-fill:#c79800;"></path></svg>