<?xml version="1.0" standalone="no"?><!DOCTYPE svg PUBLIC "-//W3C//DTD SVG 1.1//EN" "http://www.w3.org/Graphics/SVG/1.1/DTD/svg11.dtd"><svg t="1681842374448" class="icon" viewBox="0 0 1024 1024" version="1.1" xmlns="http://www.w3.org/2000/svg" p-id="2324" xmlns:xlink="http://www.w3.org/1999/xlink" width="200" height="200"><path d="M896 896H128a96 96 0 0 1-96-96V224a96 96 0 0 1 96-96h768a96 96 0 0 1 96 96v576a96 96 0 0 1-96 96z m32-672a32 32 0 0 0-32-32H128a32 32 0 0 0-32 32v576a32 32 0 0 0 32 32h768a32 32 0 0 0 32-32V224z" fill="#3399FF" p-id="2325"></path></svg>