<?xml version="1.0" standalone="no"?><!DOCTYPE svg PUBLIC "-//W3C//DTD SVG 1.1//EN" "http://www.w3.org/Graphics/SVG/1.1/DTD/svg11.dtd"><svg t="1681842367399" class="icon" viewBox="0 0 1024 1024" version="1.1" xmlns="http://www.w3.org/2000/svg" p-id="1840" xmlns:xlink="http://www.w3.org/1999/xlink" width="200" height="200"><path d="M864 928H160a96 96 0 0 1-96-96V192a96 96 0 0 1 96-96h288v64H160a32 32 0 0 0-32 32v640a32 32 0 0 0 32 32h704a32 32 0 0 0 32-32v-224h64v224a96 96 0 0 1-96 96z m-49.728-593.728l-210.048 209.408-92.512-92.288 210.144-209.504L576 96h384v384z" fill="#3399FF" p-id="1841"></path></svg>