<?xml version="1.0" standalone="no"?><!DOCTYPE svg PUBLIC "-//W3C//DTD SVG 1.1//EN" "http://www.w3.org/Graphics/SVG/1.1/DTD/svg11.dtd"><svg t="1681842370725" class="icon" viewBox="0 0 1024 1024" version="1.1" xmlns="http://www.w3.org/2000/svg" p-id="2000" xmlns:xlink="http://www.w3.org/1999/xlink" width="200" height="200"><path d="M160 96h704a96 96 0 0 1 96 96v640a96 96 0 0 1-96 96h-288v-64h288a32 32 0 0 0 32-32V192a32 32 0 0 0-32-32H160a32 32 0 0 0-32 32v224H64V192a96 96 0 0 1 96-96z m49.728 593.728l210.048-209.408 92.512 92.288-210.144 209.536L448 928H64V544z" fill="#3399FF" p-id="2001"></path></svg>