<?xml version="1.0" standalone="no"?><!DOCTYPE svg PUBLIC "-//W3C//DTD SVG 1.1//EN" "http://www.w3.org/Graphics/SVG/1.1/DTD/svg11.dtd"><svg t="1681842372440" class="icon" viewBox="0 0 1024 1024" version="1.1" xmlns="http://www.w3.org/2000/svg" p-id="2162" xmlns:xlink="http://www.w3.org/1999/xlink" width="200" height="200"><path d="M256 128h640a96 96 0 0 1 96 96v448a96 96 0 0 1-96 96h-288v-64h288a32 32 0 0 0 32-32V224a32 32 0 0 0-32-32H256a32 32 0 0 0-32 32v224H160V224a96 96 0 0 1 96-96zM128 512h320a96 96 0 0 1 96 96v192a96 96 0 0 1-96 96H128a96 96 0 0 1-96-96v-192a96 96 0 0 1 96-96z m0 64h320a32 32 0 0 1 32 32v192a32 32 0 0 1-32 32H128a32 32 0 0 1-32-32v-192a32 32 0 0 1 32-32z" fill="#3399FF" p-id="2163"></path></svg>